<svg xmlns="http://www.w3.org/2000/svg" data-name="Layer 1" viewBox="0 0 100 125" x="0px" y="0px"><title>Building Icons</title><path d="M54,91H14a2,2,0,0,1-2-2V9a2,2,0,0,1,2-2H54a2,2,0,0,1,2,2V89A2,2,0,0,1,54,91ZM16,87H52V11H16Z"/><path d="M86,91H54a2,2,0,0,1-2-2V41a2,2,0,0,1,2-2H86a2,2,0,0,1,2,2V89A2,2,0,0,1,86,91ZM56,87H84V43H56Z"/><polygon points="24 15 20 15 20 19 24 19 24 15 24 15"/><polygon points="24 23 20 23 20 27 24 27 24 23 24 23"/><polygon points="24 31 20 31 20 35 24 35 24 31 24 31"/><polygon points="24 39 20 39 20 43 24 43 24 39 24 39"/><polygon points="24 47 20 47 20 51 24 51 24 47 24 47"/><polygon points="24 55 20 55 20 59 24 59 24 55 24 55"/><polygon points="24 63 20 63 20 67 24 67 24 63 24 63"/><polygon points="24 71 20 71 20 75 24 75 24 71 24 71"/><polygon points="24 79 20 79 20 83 24 83 24 79 24 79"/><polygon points="32 15 28 15 28 19 32 19 32 15 32 15"/><polygon points="32 23 28 23 28 27 32 27 32 23 32 23"/><polygon points="32 31 28 31 28 35 32 35 32 31 32 31"/><polygon points="32 39 28 39 28 43 32 43 32 39 32 39"/><polygon points="32 47 28 47 28 51 32 51 32 47 32 47"/><polygon points="32 55 28 55 28 59 32 59 32 55 32 55"/><polygon points="32 63 28 63 28 67 32 67 32 63 32 63"/><polygon points="40 15 36 15 36 19 40 19 40 15 40 15"/><polygon points="40 23 36 23 36 27 40 27 40 23 40 23"/><polygon points="40 31 36 31 36 35 40 35 40 31 40 31"/><polygon points="40 39 36 39 36 43 40 43 40 39 40 39"/><polygon points="40 47 36 47 36 51 40 51 40 47 40 47"/><polygon points="40 55 36 55 36 59 40 59 40 55 40 55"/><polygon points="40 63 36 63 36 67 40 67 40 63 40 63"/><polygon points="48 15 44 15 44 19 48 19 48 15 48 15"/><polygon points="48 23 44 23 44 27 48 27 48 23 48 23"/><polygon points="48 31 44 31 44 35 48 35 48 31 48 31"/><polygon points="48 39 44 39 44 43 48 43 48 39 48 39"/><polygon points="48 47 44 47 44 51 48 51 48 47 48 47"/><polygon points="48 55 44 55 44 59 48 59 48 55 48 55"/><polygon points="48 63 44 63 44 67 48 67 48 63 48 63"/><polygon points="48 71 44 71 44 75 48 75 48 71 48 71"/><polygon points="48 79 44 79 44 83 48 83 48 79 48 79"/><polygon points="64 47 60 47 60 51 64 51 64 47 64 47"/><polygon points="64 55 60 55 60 59 64 59 64 55 64 55"/><polygon points="64 63 60 63 60 67 64 67 64 63 64 63"/><polygon points="64 71 60 71 60 75 64 75 64 71 64 71"/><polygon points="64 79 60 79 60 83 64 83 64 79 64 79"/><polygon points="72 47 68 47 68 51 72 51 72 47 72 47"/><polygon points="72 55 68 55 68 59 72 59 72 55 72 55"/><polygon points="72 63 68 63 68 67 72 67 72 63 72 63"/><polygon points="72 71 68 71 68 75 72 75 72 71 72 71"/><polygon points="72 79 68 79 68 91 72 91 72 79 72 79"/><polygon points="80 47 76 47 76 51 80 51 80 47 80 47"/><polygon points="80 55 76 55 76 59 80 59 80 55 80 55"/><polygon points="80 63 76 63 76 67 80 67 80 63 80 63"/><polygon points="80 71 76 71 76 75 80 75 80 71 80 71"/><polygon points="80 79 76 79 76 83 80 83 80 79 80 79"/><path d="M38,91H30a2,2,0,0,1-2-2V73a2,2,0,0,1,2-2h8a2,2,0,0,1,2,2V89A2,2,0,0,1,38,91Zm-6-4h4V75H32Z"/><text x="0" y="115" fill="#000000" font-size="5px" font-weight="bold" font-family="'Helvetica Neue', Helvetica, Arial-Unicode, Arial, Sans-serif">Created by Blair Adams</text><text x="0" y="120" fill="#000000" font-size="5px" font-weight="bold" font-family="'Helvetica Neue', Helvetica, Arial-Unicode, Arial, Sans-serif">from the Noun Project</text></svg>