<svg xmlns="http://www.w3.org/2000/svg" xmlns:xlink="http://www.w3.org/1999/xlink" version="1.1" x="0px" y="0px" viewBox="0 0 60 75" enable-background="new 0 0 60 60" xml:space="preserve"><g><path d="M30,1.1669922C14.1015625,1.1669922,1.1669922,14.1005859,1.1669922,30S14.1015625,58.8330078,30,58.8330078   S58.8330078,45.8994141,58.8330078,30S45.8984375,1.1669922,30,1.1669922z M30,56.9726563   C15.1269531,56.9726563,3.0273438,44.8720703,3.0273438,30c0-3.5068359,0.6796875-6.8564453,1.9023438-9.9326172   l1.2651367,0.8339844v2.5l1.0463867,2.0927734l1.9765625-0.2900391V26.25l1.1625977,1.8017578l2.7900391,0.5810547   l2.0927734,0.5820313l0.8139648,1.3359375l1.2788086,1.2207031l0.2910156-1.3359375L16.9492188,30l0.1162109-1.5996094h-1.046875   l-0.6391602-0.8720703l0.7558594-0.2900391L16.3676758,26.25l-0.4067383-0.6982422l-2.5581055,1.2207031h-1.0458984   l0.465332-2.0927734l1.5112305-2.2666016h3.0805664l0.3491211,1.5107422l1.0458984,0.7558594l0.4067383-2.2089844   c0,0,2.7905273-0.40625,2.7905273-2.2089844c0-1.8017578,4.4179688-3.953125,4.4179688-3.953125l0.1166992-1.1035156   l2.0922852-0.1171875l1.8603516,1.5703125h0.8720703L31.0166016,15.4375h-0.6391602l0.0576172-0.5234375l0.6977539-0.5820313   l0.1166992-0.8710938l-0.8720703-0.7558594l-0.1162109-0.7558594l-0.7558594-0.3486328l-1.3950195,0.5224609v-1.0458984   l-0.5234375-0.4648438l-2.2089844,0.1748047l-0.1157227,1.5107422l-1.3955078,0.4072266l-0.581543,1.6269531h-0.6391602   l-0.2329102-1.8017578h-1.6274414l-0.3486328-1.453125l3.6044922-1.8017578v0.9306641h0.7553711l2.2089844-1.8613281   l1.1044922,0.1748047l-0.1748047,1.2792969h1.8022461h1.3950195l0.9306641-1.3369141h-1.1044922l-1.4536133-1.3574219h-2.7319336   l-0.5039063-0.8134766l-2.8681641-0.2324219v1.0458984l-1.5498047,1.3574219h-1.3178711l-0.9301758-1.3183594V5.7480469h-1.3984375   C21.7700195,4.0068359,25.7724609,3.0273438,30,3.0273438c6.8066406,0,13.0268555,2.5390625,17.777832,6.7128906h-0.6586914   l-0.4067383,1.2792969v0.5810547l0.9008789,0.2900391l0.4355469,0.5244141h1.1044922l-0.2900391,0.8134766h-2.1508789   l-0.8720703,1.9179688h-1.2788086l-0.3100586,0.9111328l0.8525391,0.5429688l-0.4262695,0.6582031   c0,0-1.5112305-0.2724609-1.6279297-0.2324219c-0.1162109,0.0380859-1.1235352,0.3876953-1.1235352,0.3876953l-0.5810547,1.1630859   c0,0-0.2709961,0.4658203,0,0.5029297c0.2709961,0.0380859,1.0458984,0.7353516,1.0458984,0.7353516   s2.1704102,0.1552734,2.2866211,0c0.1162109-0.1542969,1.2397461-1.9755859,1.2397461-1.9755859l1.1630859-0.2333984   l0.6201172-0.8134766l0.4257813,0.4658203c0,0,0.2333984,0.8535156,0.4267578,1.0078125s1.0463867,0.6582031,1.0463867,0.6582031   s0.1166992,0.8125,0.2714844,0.7753906c0.1542969-0.0390625,1.6274414,0,1.6274414-0.1171875   c0-0.1152344-0.8139648-1.2001953-0.8139648-1.2001953l-0.3876953-0.96875l-0.5805664-1.0458984l0.890625-0.3886719   l0.6591797,0.6591797c0,0,0.2709961,0.8525391,0.2324219,0.8525391s0.8911133,0.1552734,0.9296875,0.2705078   c0.0390625,0.1171875,0.0390625,0.7939453,0,0.9980469c-0.0385742,0.2050781,1.0083008,1.125,1.0083008,1.125l0.5424805-0.3017578   l-0.5039063-1.2783203l0.484375-0.6699219c0.7490234,1.4453125,1.3735352,2.9638672,1.8535156,4.5458984h-1.0981445   l-1.472168-1.2021484l-1.046875,0.1552734v0.7753906h-1.2788086c0,0-2.0927734-0.6972656-2.2866211-0.5039063   c-0.1938477,0.1943359,0-1.5205078,0-1.5205078l-2.0541992-0.2236328c0,0-1.8984375,0.7744141-2.0146484,0.8525391   c-0.1166992,0.078125-1.9765625,0.0390625-1.9765625,0.0390625l-1.3603516,0.7363281l-0.4609375,1.9765625l-2.2866211,1.5498047   l0.5039063,1.0078125l0.1552734,0.9306641l-0.6591797,0.1933594l-0.1938477,2.5966797l2.0541992,2.5576172l3.0229492,0.5429688   l0.1938477-0.8730469h1.0463867l0.4257813,0.4462891l2.402832,0.4267578l1.2011719,2.2666016l1.918457,3.2548828   l-1.5117188,2.09375l0.5239258,2.0341797c0,0,1.0458984-0.2900391,1.0458984,0s-0.1743164,0.8710938-0.2324219,1.453125   c-0.0581055,0.5810547,0.4648438,1.6269531,0.4648438,1.6269531l0.2329102,1.1630859L51.1186523,46.75   C46.1728516,52.9726563,38.546875,56.9726563,30,56.9726563z"/><path d="M44.1572266,12.7636719v1.2011719c0,0,1.3344727-0.0390625,1.3735352-0.1552734s-0.1552734-0.9306641-0.1552734-0.9306641   l-0.2329102-1.0849609c0,0-0.6201172-0.6591797-0.6586914-0.6972656c-0.0385742-0.0400391-1.7050781,0-1.7050781,0   l0.2324219,0.6972656L44.1572266,12.7636719z"/><path d="M42.3911133,14.2744141c0-0.3095703,1.1630859-0.7753906,1.1630859-0.7753906v-0.6582031   c0,0-0.6591797-0.1552734-0.7753906-0.3193359l-1.1625977,0.9453125v0.8076172   C41.6162109,14.2744141,42.3911133,14.5839844,42.3911133,14.2744141z"/><path d="M33.6323242,34.5615234L29.5634766,34.96875l-0.5229492-1.453125l0.1162109-0.6386719l-0.465332-1.1054688h-1.9179688   l-0.2617188-1.3359375L25.262207,30l-0.581543,0.5507813l-1.5112305-0.1152344l-0.5234375-0.7558594l-1.8017578-0.6005859   l-1.7827148,1.9384766v1.859375c0,0-1.4731445,0.4453125-1.4731445,0.9208984c0,0.4746094,0,3.0332031,0,3.0332031   l1.9379883,2.2460938c0,0-0.2329102,1.0087891,0,1.0087891c0.2324219,0,1.3178711,0.6191406,1.3178711,0.6191406   l1.2397461,0.7763672v4.5332031l0.8530273,0.2900391l-0.6977539,2.3837891l1.2783203,1.453125l-0.3481445,1.8603516   c0,0,1.2788086,2.4990234,1.4526367,2.5576172c0.1748047,0.0585938,1.9189453,1.3369141,1.9189453,1.3369141h1.3369141v-0.8710938   c0,0-1.6860352-0.9882813-1.5117188-1.0478516c0.1748047-0.0576172,0.581543-0.9287109,0.581543-0.9287109l-0.7558594-0.5244141   l-0.2905273-0.8710938l0.8720703-0.4072266l0.0576172-0.5234375l-0.8134766-0.0576172l0.1162109-0.6396484l1.453125-0.1738281   c0,0,1.1630859-0.7568359,1.2792969-0.9882813c0.1162109-0.2324219,1.2788086-2.8486328,2.0927734-2.8486328   c0.8134766,0-0.2910156-2.09375-0.2910156-2.09375l0.2910156-0.5224609l1.8017578-0.0585938l0.9882813-0.5224609v-3.7207031   l0.987793-0.7558594l0.6977539-1.3955078l-0.9296875-0.8710938L33.6323242,34.5615234z"/></g><text x="0" y="75" fill="#000000" font-size="5px" font-weight="bold" font-family="'Helvetica Neue', Helvetica, Arial-Unicode, Arial, Sans-serif">Created by yogi rista</text><text x="0" y="80" fill="#000000" font-size="5px" font-weight="bold" font-family="'Helvetica Neue', Helvetica, Arial-Unicode, Arial, Sans-serif">from the Noun Project</text></svg>