<svg xmlns="http://www.w3.org/2000/svg" data-name="Layer 1" viewBox="0 0 100 125" x="0px" y="0px"><title>Building Icons</title><path d="M50,92a2,2,0,0,1-2-2V28a2,2,0,0,1,4,0V90A2,2,0,0,1,50,92Z"/><path d="M59.63,52.77a2,2,0,0,1-1.84-1.22L48.16,28.78a2,2,0,1,1,3.68-1.56L61.48,50a2,2,0,0,1-1.84,2.78Z"/><path d="M50,30a2,2,0,0,1-1.6-3.2L62.63,7.75a2,2,0,1,1,3.21,2.39L51.6,29.2A2,2,0,0,1,50,30Z"/><path d="M50,30h-.18L25.55,27.85a2,2,0,1,1,.35-4L50.18,26A2,2,0,0,1,50,30Z"/><path d="M62,36H50a2,2,0,0,1-2-2V28a2,2,0,0,1,2-2H62a2,2,0,0,1,2,2v6A2,2,0,0,1,62,36ZM52,32h8V30H52Z"/><text x="0" y="115" fill="#000000" font-size="5px" font-weight="bold" font-family="'Helvetica Neue', Helvetica, Arial-Unicode, Arial, Sans-serif">Created by Blair Adams</text><text x="0" y="120" fill="#000000" font-size="5px" font-weight="bold" font-family="'Helvetica Neue', Helvetica, Arial-Unicode, Arial, Sans-serif">from the Noun Project</text></svg>