<svg xmlns="http://www.w3.org/2000/svg" xmlns:xlink="http://www.w3.org/1999/xlink" version="1.1" x="0px" y="0px" viewBox="0 0 100 125" style="enable-background:new 0 0 100 100;" xml:space="preserve"><g><path d="M37.8662109,87.7412109h1.2246094c0.6982422,3.4863281,3.7832031,6.1201172,7.4716797,6.1201172   s6.7734375-2.6337891,7.4716797-6.1201172h1.2246094c2.0751953,0,3.7636719-1.6884766,3.7636719-3.7636719V79.53125h0.7099609   c0.8286133,0,1.5-0.671875,1.5-1.5v-0.5136719c0-1.8709106,0.156311-3.697998,0.4413452-5.4769897   c0.0181885-0.067688,0.0304565-0.1370239,0.0390625-0.2081299c0.7927856-4.7521973,2.574707-9.1292114,5.2979126-12.8598022   c3.5224609-4.8251953,5.2250977-10.7851563,4.7949219-16.7841797C70.9038086,29.6220703,60.737793,19.5625,48.1582031,18.7900391   c-7.0688477-0.4345703-13.793457,1.9882813-18.9321289,6.8203125c-5.0673828,4.765625-7.9736328,11.4873047-7.9736328,18.4404297   c0,5.1855469,1.5576172,10.1708984,4.503418,14.4179688c4.0146484,5.7900391,6.1367188,12.3759766,6.1367188,19.046875v0.515625   c0,0.828125,0.6713867,1.5,1.5,1.5h0.7099609v4.4462891C34.1025391,86.0527344,35.7910156,87.7412109,37.8662109,87.7412109z    M50.1557617,45.34375c2.4350586-3.1884766,7.0126953-4.1992188,9.253418-4.5107422   c0.2895508,2.2451172,0.5180664,6.9267578-1.9165039,10.1152344c-1.7839355,2.3352051-4.7121582,3.4957275-7.034668,4.0752563   l4.5581055-5.9678345c0.5029297-0.6582031,0.3769531-1.5996094-0.28125-2.1025391   c-0.6577148-0.5-1.5996094-0.3759766-2.1025391,0.2822266l-4.5606689,5.9711304   C48.0197144,50.8129272,48.3721313,47.6789551,50.1557617,45.34375z M45.0532227,53.2063599l-4.5605469-5.9710083   c-0.5024414-0.6591797-1.4438477-0.7841797-2.1025391-0.2822266c-0.6582031,0.5029297-0.7841797,1.4443359-0.28125,2.1025391   l4.5640869,5.9755859c-2.3197632-0.5759277-5.2473755-1.7354126-7.0406494-4.0830078   c-2.4350586-3.1884766-2.2060547-7.8710938-1.9165039-10.1152344c2.2416992,0.3115234,6.8183594,1.3232422,9.253418,4.5107422   C44.7529297,47.6790771,45.1051636,50.8132935,45.0532227,53.2063599z M58.4993286,73.1523438   c-0.12854,1.112793-0.225769,2.2358398-0.2546997,3.3789063h-0.722168H35.6025391H34.878418   c-0.0322876-1.1315308-0.140564-2.2571411-0.28302-3.3789063H58.4993286z M46.5625,90.8613281   c-2.0195313,0-3.722168-1.310791-4.3487549-3.1201172h8.6975098C50.284668,89.5505371,48.5820313,90.8613281,46.5625,90.8613281z    M56.0224609,83.9775391c0,0.4208984-0.3427734,0.7636719-0.7636719,0.7636719h-2.5761719H40.4423828h-2.5761719   c-0.4208984,0-0.7636719-0.3427734-0.7636719-0.7636719V79.53125h18.9199219V83.9775391z M24.2524414,44.0507813   c0-6.2197266,2.4960938-11.9921875,7.0288086-16.2548828c4.5297852-4.2597656,10.4609375-6.3964844,16.6933594-6.0117188   c11.0854492,0.6816406,20.0439453,9.5458984,20.8388672,20.6191406c0.3793945,5.2919922-1.1210938,10.5478516-4.2255859,14.7998047   c-2.7721558,3.7976074-4.6507568,8.1950684-5.6099243,12.9492188H48.0625V58.5063477   c2.4033813-0.2631226,8.4619751-1.3493652,11.8139648-5.737793c4.1547852-5.4404297,2.3203125-13.5654297,2.2402344-13.9082031   c-0.1635742-0.6992188-0.8056641-1.2021484-1.5161133-1.1582031c-0.3525391,0.0126953-8.6743164,0.3808594-12.8286133,5.8212891   c-0.4822998,0.6313477-0.8764648,1.3012695-1.2094727,1.9886475c-0.3330078-0.6873779-0.7271729-1.3572998-1.2094727-1.9886475   c-4.1542969-5.4404297-12.4760742-5.8085938-12.8286133-5.8212891c-0.7211914-0.0419922-1.3530273,0.4589844-1.5161133,1.1582031   c-0.0800781,0.3427734-1.9145508,8.4677734,2.2402344,13.9082031c3.3519897,4.3884277,9.4105835,5.4746704,11.8139648,5.737793   v11.6459961H34.0774536c-1.0166626-4.6989136-2.9768677-9.2402954-5.8562622-13.3925781   C25.625,53.0166016,24.2524414,48.6220703,24.2524414,44.0507813z"/><path d="M47.3125,10.8886719v-3.25c0-0.828125-0.6713867-1.5-1.5-1.5s-1.5,0.671875-1.5,1.5v3.25c0,0.828125,0.6713867,1.5,1.5,1.5   S47.3125,11.7167969,47.3125,10.8886719z"/><path d="M22.0209961,20.3300781L19.7226563,18.03125c-0.5849609-0.5859375-1.5351563-0.5859375-2.1210938,0   s-0.5859375,1.5351563,0,2.1210938l2.2983398,2.2988281c0.2924805,0.2929688,0.6767578,0.4394531,1.0605469,0.4394531   s0.7675781-0.1464844,1.0605469-0.4394531C22.6069336,21.8652344,22.6069336,20.9160156,22.0209961,20.3300781z"/><path d="M14.3125,46.3886719c0-0.828125-0.6713867-1.5-1.5-1.5h-3.25c-0.8286133,0-1.5,0.671875-1.5,1.5s0.6713867,1.5,1.5,1.5   h3.25C13.6411133,47.8886719,14.3125,47.2167969,14.3125,46.3886719z"/><path d="M79.3125,44.3886719c-0.8286133,0-1.5,0.671875-1.5,1.5s0.6713867,1.5,1.5,1.5h3.25c0.8286133,0,1.5-0.671875,1.5-1.5   s-0.6713867-1.5-1.5-1.5H79.3125z"/><path d="M74.1699219,19.7988281c0.5859375-0.5859375,0.5859375-1.5351563,0-2.1210938   c-0.5849609-0.5859375-1.5351563-0.5859375-2.1210938,0l-2.2983398,2.2978516   c-0.5859375,0.5859375-0.5859375,1.5351563,0,2.1210938c0.2924805,0.2929688,0.6767578,0.4394531,1.0605469,0.4394531   s0.7675781-0.1464844,1.0605469-0.4394531L74.1699219,19.7988281z"/></g><text x="0" y="115" fill="#000000" font-size="5px" font-weight="bold" font-family="'Helvetica Neue', Helvetica, Arial-Unicode, Arial, Sans-serif">Created by Rudez Studio</text><text x="0" y="120" fill="#000000" font-size="5px" font-weight="bold" font-family="'Helvetica Neue', Helvetica, Arial-Unicode, Arial, Sans-serif">from the Noun Project</text></svg>