<svg xmlns="http://www.w3.org/2000/svg" xmlns:xlink="http://www.w3.org/1999/xlink" xml:space="preserve" version="1.1" style="shape-rendering:geometricPrecision;text-rendering:geometricPrecision;image-rendering:optimizeQuality;" viewBox="0 0 661 351.25" x="0px" y="0px" fill-rule="evenodd" clip-rule="evenodd"><defs><style type="text/css">
   
    .fil0 {fill:black}
   
  </style></defs><g><path class="fil0" d="M11 0l639 0c7,0 11,5 11,11 0,6 -5,11 -11,11l-639 0c-6,0 -11,-5 -11,-11 0,-6 5,-11 11,-11z"/><path class="fil0" d="M11 130l639 0c7,0 11,5 11,11 0,6 -5,11 -11,11l-639 0c-6,0 -11,-5 -11,-11 0,-6 5,-11 11,-11z"/><path class="fil0" d="M11 259l639 0c7,0 11,5 11,11 0,6 -5,11 -11,11l-639 0c-6,0 -11,-5 -11,-11 0,-6 5,-11 11,-11z"/></g><text x="0" y="296" fill="#000000" font-size="5px" font-weight="bold" font-family="'Helvetica Neue', Helvetica, Arial-Unicode, Arial, Sans-serif">Created by QOLBIN SALIIM</text><text x="0" y="301" fill="#000000" font-size="5px" font-weight="bold" font-family="'Helvetica Neue', Helvetica, Arial-Unicode, Arial, Sans-serif">from the Noun Project</text></svg>